<?xml version="1.0" encoding="UTF-8"?>
<!-- Generator: Adobe Illustrator 28.0.0, SVG Export Plug-In . SVG Version: 6.00 Build 0)  -->
<svg xmlns="http://www.w3.org/2000/svg" xmlns:xlink="http://www.w3.org/1999/xlink" version="1.1" id="Calque_1" x="0px" y="0px" viewBox="0 0 362.8 71.6" style="enable-background:new 0 0 362.8 71.6;" xml:space="preserve">
<style type="text/css">
	.st0{fill:#F8E9D1;}
</style>
<path id="Tracé_1567" class="st0" d="M234.2,29.9l4.6-13.4h2.5l4.4,13.4h-2.1l-1-3.2h-5.2l-1.1,3.2H234.2z M237.9,25.2h4.2  l-2.1-6.2L237.9,25.2z"></path>
<path id="Tracé_1568" class="st0" d="M253.2,30.2c-1,0-2.1-0.3-2.9-0.8c-0.9-0.6-1.6-1.4-2.1-2.4c-0.5-1.1-0.8-2.4-0.8-3.6  c0-1,0.1-2,0.5-3c0.3-0.8,0.8-1.6,1.4-2.2c0.6-0.6,1.2-1.1,2-1.4c0.8-0.3,1.6-0.5,2.4-0.5c1,0,2,0.2,2.9,0.7c0.9,0.5,1.6,1.3,2,2.3  l-2,0.6c-0.4-0.5-0.8-1-1.4-1.3c-0.5-0.3-1.1-0.4-1.7-0.4c-0.7,0-1.4,0.2-2,0.6c-0.6,0.5-1.2,1.1-1.5,1.8c-0.4,0.9-0.6,1.8-0.6,2.8  c0,0.9,0.1,1.8,0.5,2.6c0.3,0.7,0.7,1.3,1.3,1.8c0.6,0.4,1.3,0.7,2,0.6c0.6,0,1.2-0.1,1.7-0.4c0.5-0.3,0.9-0.7,1.2-1.2  c0.3-0.6,0.5-1.3,0.4-2h0.5c0,1-0.1,2-0.4,2.9c-0.2,0.8-0.7,1.4-1.3,1.9C254.8,30,254,30.2,253.2,30.2 M256.9,29.9l-0.3-3.1v-2.3  l-3.2-0.1v-1.3h5.1v6.7L256.9,29.9z"></path>
<path id="Tracé_1569" class="st0" d="M262.4,29.9V16.5h8.4v1.7h-6.4v4.1h6V24h-6v4.1h6.4v1.7L262.4,29.9z"></path>
<path id="Tracé_1570" class="st0" d="M274.6,16.5h2.3l6.5,10.4h-0.2V16.5h2v13.4h-2.1l-6.8-10.8h0.3v10.8h-2L274.6,16.5z"></path>
<path id="Tracé_1571" class="st0" d="M294.2,30.2c-1.1,0-2.1-0.3-3.1-0.9c-0.9-0.6-1.6-1.5-2-2.4c-0.5-1.2-0.7-2.4-0.7-3.7  c0-1.3,0.2-2.6,0.7-3.8c0.4-1,1.2-1.8,2.1-2.3c0.9-0.5,1.9-0.8,3-0.8c1.3-0.1,2.5,0.3,3.5,1.1c0.9,0.7,1.5,1.7,1.7,2.8l-2.1,0.4  c-0.2-0.7-0.6-1.4-1.2-1.9c-0.5-0.5-1.2-0.7-1.9-0.7c-0.6,0-1.3,0.2-1.8,0.6c-0.6,0.4-1,1-1.3,1.7c-0.4,0.9-0.5,1.8-0.5,2.8  c0,0.9,0.1,1.8,0.4,2.7c0.2,0.7,0.6,1.3,1.2,1.8c0.6,0.4,1.3,0.7,2,0.7c0.8,0,1.7-0.2,2.3-0.8c0.6-0.5,0.9-1.3,0.8-2h2.1  c0,0.9-0.2,1.7-0.7,2.5c-0.4,0.7-1.1,1.2-1.8,1.6C296.1,30,295.2,30.2,294.2,30.2"></path>
<path id="Tracé_1572" class="st0" d="M302.7,29.9V16.5h8.4v1.7h-6.4v4.1h6V24h-6v4.1h6.4v1.7L302.7,29.9z"></path>
<rect id="Rectangle_2019" x="235.7" y="41.7" class="st0" width="2" height="13.4"></rect>
<path id="Tracé_1573" class="st0" d="M242,41.7h2.9l4.2,8.8h-0.2l4.2-8.8h2.8V55h-2V43.9h0.3l-4.6,9.6h-1.3l-4.5-9.5h0.2V55h-2  V41.7z"></path>
<path id="Tracé_1574" class="st0" d="M260.2,41.7h2.9l4.2,8.8h-0.2l4.2-8.8h2.8V55h-2V43.9h0.3l-4.6,9.6h-1.3l-4.5-9.5h0.2V55h-2  L260.2,41.7z"></path>
<path id="Tracé_1575" class="st0" d="M283.3,55.3c-1.1,0-2.1-0.2-3-0.8c-0.9-0.5-1.6-1.4-2.1-2.3c-0.5-1.2-0.8-2.5-0.8-3.8  c0-1.3,0.2-2.7,0.8-3.9c0.4-1,1.2-1.8,2.1-2.3c1.9-1,4.2-1,6.1,0c0.9,0.5,1.7,1.3,2.1,2.3c0.5,1.2,0.8,2.5,0.8,3.9  c0,1.3-0.2,2.7-0.8,3.9c-0.4,1-1.2,1.8-2.1,2.3C285.5,55.1,284.4,55.3,283.3,55.3 M283.3,53.5c1.1,0,2.1-0.4,2.8-1.3  c0.8-1.1,1.1-2.5,1-3.8c0.1-1.3-0.3-2.7-1-3.8c-1.2-1.5-3.5-1.8-5.1-0.5c-0.2,0.2-0.4,0.3-0.5,0.5c-0.8,1.1-1.1,2.5-1,3.8  c-0.1,1.3,0.3,2.7,1,3.8C281.2,53,282.2,53.5,283.3,53.5"></path>
<path id="Tracé_1576" class="st0" d="M292.5,55V41.7h5.2c0.9,0,1.7,0.1,2.5,0.5c0.6,0.3,1.1,0.7,1.5,1.3c0.3,0.5,0.5,1.1,0.5,1.8  c0,0.7-0.2,1.4-0.6,2c-0.5,0.6-1.1,1-1.9,1.1c0.5,0.1,1,0.3,1.4,0.6c0.4,0.3,0.7,0.6,1,1.1c0.2,0.4,0.4,0.9,0.4,1.4  c0,0.4-0.1,0.9-0.2,1.3c-0.2,0.4-0.4,0.9-0.8,1.2c-0.4,0.4-0.9,0.7-1.4,0.9c-0.7,0.2-1.5,0.3-2.3,0.3L292.5,55z M294.5,43.4v4.1h3.1  c0.7,0,1.3-0.2,1.8-0.6c0.5-0.4,0.7-1,0.7-1.5c0-0.6-0.2-1.1-0.6-1.5c-0.5-0.4-1.2-0.6-1.8-0.5L294.5,43.4z M294.5,53.3h3.1  c0.7,0.1,1.4-0.1,2-0.6c0.4-0.4,0.6-0.9,0.6-1.5c0-0.6-0.2-1.1-0.6-1.5c-0.6-0.4-1.2-0.6-1.9-0.6h-3.1V53.3z"></path>
<rect id="Rectangle_2020" x="306" y="41.7" class="st0" width="2" height="13.4"></rect>
<path id="Tracé_1577" class="st0" d="M314.3,41.7v11.6h5.8V55h-7.7V41.7H314.3z"></path>
<rect id="Rectangle_2021" x="322.6" y="41.7" class="st0" width="2" height="13.4"></rect>
<path id="Tracé_1578" class="st0" d="M328.8,55V41.7h8.4v1.7h-6.4v4.1h6v1.7h-6v4.1h6.4V55H328.8z M334.4,40l-4.1-3.5l1.4-1.1  l3.7,3.8L334.4,40z"></path>
<path id="Tracé_1579" class="st0" d="M341.1,55V41.7h4.8c1.3-0.1,2.6,0.3,3.6,1.1c0.8,0.7,1.3,1.8,1.2,2.9c0,1.1-0.4,2.1-1.2,2.9  c-1,0.8-2.3,1.2-3.6,1.1h-2.8V55H341.1z M343.1,48.3h2.6c0.8,0.1,1.6-0.2,2.2-0.7c0.5-0.5,0.8-1.1,0.7-1.8c0-0.7-0.2-1.3-0.7-1.8  c-0.6-0.5-1.3-0.7-2-0.7h-2.8L343.1,48.3z M348.4,55l-3.7-6.1h2.1L351,55H348.4z"></path>
<path id="Tracé_1580" class="st0" d="M354.4,55V41.7h8.4v1.7h-6.4v4.1h6v1.7h-6v4.1h6.4V55H354.4z"></path>
<rect id="Rectangle_2022" x="210.9" class="st0" width="1.2" height="71.6"></rect>
<path id="Tracé_1581" class="st0" d="M0.1,46.7V45l5.7-0.9V5.2L0.1,4.4V2.6h20.2c5.6,0,9.7,0.8,12.3,2.5s3.9,4.3,3.9,7.9  c0.1,2.4-0.8,4.8-2.4,6.6c-1.8,1.9-4.1,3.2-6.7,3.6c4,0.4,7,1.6,9.2,3.5c2.1,1.8,3.3,4.5,3.3,7.3c0,4.2-1.5,7.4-4.4,9.6  s-7.2,3.3-12.8,3.3L8.5,46.7L0.1,46.7z M29.6,13.3c0-2.7-0.8-4.7-2.5-5.9s-4.4-1.8-8.2-1.8h-6.8v16.7h7.2c3.5,0,6.2-0.7,7.8-2.1  C28.8,18.8,29.6,16.5,29.6,13.3 M32.9,34.2c0-3.1-1-5.4-3.1-6.8s-5.4-2.2-9.9-2.2h-7.9v18.5c3,0.1,6.2,0.2,9.7,0.2  c3.7,0,6.6-0.8,8.4-2.4S32.9,37.5,32.9,34.2"></path>
<path id="Tracé_1582" class="st0" d="M71.4,21.7c0,3-1.8,5.5-5.5,7.6c-3.7,2.1-8.6,3.4-14.8,3.8l-0.1,2.4c0,2.8,0.6,4.9,1.8,6.3  c1.3,1.5,3.2,2.3,5.2,2.1c1.9,0,3.7-0.3,5.5-1c1.6-0.6,3.2-1.4,4.7-2.3l1,1.4c-1.9,1.6-4.1,3-6.4,3.9c-2,0.9-4.2,1.3-6.4,1.4  c-3.6,0-6.3-1-8.2-3c-1.9-2-2.9-4.8-2.9-8.5c0-3.5,0.8-7.1,2.3-10.2c1.5-3.1,3.7-5.7,6.4-7.7c2.5-1.9,5.5-2.9,8.6-2.9  c2.3-0.1,4.6,0.5,6.5,1.9C70.5,18,71.5,19.8,71.4,21.7 M51.3,31.1C55,31,58.6,29.9,61.7,28c2.6-1.7,3.9-3.8,3.9-6.3  c0-1.1-0.3-2.2-1-3c-0.7-0.8-1.8-1.3-2.9-1.2c-1.7,0.1-3.3,0.7-4.5,1.9c-1.6,1.4-2.8,3.1-3.7,5C52.5,26.5,51.7,28.8,51.3,31.1"></path>
<path id="Tracé_1583" class="st0" d="M83.6,18.3c1.7-1,3.5-1.8,5.4-2.4c1.5-0.6,3.1-0.9,4.8-0.9c2.7,0,4.7,0.8,6.1,2.3  c1.4,1.6,2,3.8,2,6.8v20.3l3.7,0.8v1.5H92.3v-1.5l4.1-0.8V24.7c0.1-1.5-0.4-3.1-1.3-4.3c-1.1-1.1-2.6-1.7-4.1-1.6  c-2.4,0.1-4.9,0.4-7.3,1v24.6l4.2,0.8v1.5H74.5v-1.5l3.7-0.8V18.1l-3.7-0.8v-1.5h8.8L83.6,18.3z"></path>
<path id="Tracé_1584" class="st0" d="M130.4,44.4c-2.5,2-5.5,3-8.7,3c-8.4,0-12.7-5.3-12.7-15.8c0-5.4,1.2-9.5,3.6-12.3  s5.9-4.2,10.6-4.2c2.4,0,4.8,0.3,7.2,0.8c-0.2-1.8-0.2-3.6-0.2-5.5v-8L125,1.5V0h10.7v44.4l3.8,0.8v1.5h-8.7L130.4,44.4z M115,31.6  c0,4.2,0.7,7.3,2.1,9.3c1.5,2.1,3.9,3.2,6.4,3.1c2.3,0,4.6-0.4,6.7-1.3V18.3c-2.2-0.4-4.4-0.6-6.7-0.6  C117.8,17.7,114.9,22.3,115,31.6"></path>
<path id="Tracé_1585" class="st0" d="M168.7,21.7c0,3-1.8,5.5-5.5,7.6c-3.7,2.1-8.6,3.4-14.8,3.8l-0.1,2.4c0,2.8,0.6,4.9,1.8,6.3  c1.3,1.5,3.2,2.3,5.2,2.1c1.9,0,3.7-0.3,5.5-1c1.6-0.6,3.2-1.4,4.7-2.3l1,1.4c-1.9,1.6-4.1,3-6.4,3.9c-2,0.9-4.2,1.3-6.4,1.4  c-3.6,0-6.3-1-8.2-3c-1.9-2-2.9-4.8-2.9-8.5c0-3.5,0.8-7.1,2.3-10.2c1.5-3.1,3.7-5.7,6.4-7.7c2.5-1.9,5.5-2.9,8.6-2.9  c2.3-0.1,4.6,0.5,6.5,1.9C167.8,18,168.7,19.8,168.7,21.7 M148.6,31.1c3.7-0.1,7.3-1.2,10.4-3.1c2.6-1.7,3.9-3.8,3.9-6.3  c0-1.1-0.3-2.2-1-3c-0.7-0.8-1.8-1.3-2.9-1.2c-1.7,0.1-3.3,0.7-4.5,1.9c-1.6,1.4-2.8,3.1-3.7,5C149.7,26.5,149,28.8,148.6,31.1"></path>
<path id="Tracé_1586" class="st0" d="M192,15v8.4h-1.4l-1.9-3.6c-1.3,0-2.6,0.2-3.9,0.4c-1.3,0.2-2.6,0.6-3.9,1.2v23.1l5.3,0.8v1.5  h-14.7v-1.5l3.9-0.8V18.1l-3.9-0.8v-1.5h9l0.3,3.8c1.6-1.3,3.4-2.3,5.3-3.2c1.7-0.9,3.5-1.4,5.3-1.5H192z"></path>
<path id="Tracé_1587" class="st0" d="M5.4,71.6c-0.7,0-1.4-0.1-2.1-0.3c-0.6-0.2-1.2-0.5-1.7-0.9c-0.5-0.3-0.9-0.8-1.1-1.3  c-0.3-0.5-0.4-1-0.4-1.6c0-1,0.4-1.9,1.3-2.4c1.1-0.6,2.4-1,3.7-1l0.6,1.1c-0.9,0-1.8,0.3-2.5,0.7c-0.5,0.3-0.8,0.9-0.8,1.5  c0,0.4,0.1,0.8,0.4,1.2c0.3,0.4,0.7,0.7,1.1,0.8c0.5,0.2,1.1,0.3,1.7,0.3c0.8,0,1.6-0.2,2.3-0.5c0.7-0.3,1.4-0.8,1.9-1.4  c0.6-0.6,1.1-1.3,1.5-2.1c0.5-0.8,0.9-1.7,1.2-2.5l1.4,0.8c-0.3,1-0.8,2.1-1.3,3c-0.5,0.9-1.1,1.7-1.8,2.4C9.8,70.1,9,70.7,8.2,71  C7.3,71.4,6.3,71.6,5.4,71.6 M13.7,71.6c-0.6,0-1.1-0.1-1.7-0.4c-0.6-0.3-1.2-0.7-1.7-1.2l-6.8-6c-0.5-0.4-0.9-0.9-1.1-1.4  C2.2,62.1,2,61.5,2,60.9c0-0.6,0.2-1.2,0.5-1.6c0.4-0.5,0.9-0.9,1.5-1.1c0.7-0.3,1.5-0.4,2.3-0.4c0.8,0,1.5,0.1,2.2,0.4  c0.6,0.2,1.1,0.6,1.4,1.1c0.3,0.5,0.5,1,0.5,1.6c0,0.6-0.1,1.1-0.4,1.6c-0.3,0.5-0.8,1-1.3,1.3c-0.7,0.5-1.5,0.8-2.2,1.1l-1.1-1  C6,63.7,6.6,63.4,7.1,63c0.4-0.2,0.7-0.5,0.9-0.9c0.2-0.3,0.3-0.7,0.3-1c0-0.4-0.2-0.9-0.5-1.2c-0.4-0.3-0.9-0.5-1.4-0.5  c-0.6,0-1.1,0.1-1.6,0.5c-0.3,0.3-0.5,0.8-0.5,1.2c0,0.4,0.1,0.7,0.3,1c0.2,0.4,0.5,0.7,0.8,1l6.7,5.9c0.2,0.2,0.5,0.4,0.7,0.5  c0.3,0.1,0.5,0.2,0.8,0.2c0.3,0,0.7-0.1,0.9-0.4c0.3-0.4,0.4-0.8,0.4-1.3h1.8c0,0.9-0.3,1.8-0.8,2.5C15.3,71.3,14.5,71.7,13.7,71.6"></path>
<path id="Tracé_1588" class="st0" d="M23.8,71.3L28.4,58h2.5l4.4,13.4h-2.1l-1-3.2H27l-1.1,3.2H23.8z M27.5,66.6h4.2l-2.1-6.2  L27.5,66.6z"></path>
<path id="Tracé_1589" class="st0" d="M42.5,71.6c-0.9,0-1.7-0.2-2.5-0.5c-0.7-0.3-1.4-0.8-1.8-1.5c-0.5-0.7-0.7-1.6-0.7-2.4h1.9  c0,0.5,0.1,1,0.4,1.4c0.3,0.4,0.7,0.7,1.1,0.8c0.5,0.2,1,0.3,1.6,0.3c0.5,0,1-0.1,1.5-0.3c0.4-0.1,0.7-0.4,1-0.7  c0.2-0.3,0.4-0.6,0.4-1c0-0.5-0.1-0.9-0.5-1.2c-0.4-0.4-0.9-0.6-1.4-0.8L41,64.9c-0.9-0.3-1.7-0.8-2.4-1.4c-0.6-0.6-0.9-1.4-0.8-2.2  c0-1,0.4-2,1.2-2.6c1-0.7,2.2-1.1,3.5-1c1.2-0.1,2.4,0.3,3.3,1c0.8,0.7,1.3,1.6,1.3,2.7h-2c-0.1-0.5-0.4-1-0.8-1.4  c-0.6-0.4-1.2-0.5-1.9-0.5c-0.7,0-1.3,0.1-1.9,0.5c-0.4,0.3-0.7,0.8-0.7,1.3c0,0.4,0.1,0.8,0.4,1c0.4,0.3,0.8,0.6,1.3,0.7l2.8,1  c0.9,0.3,1.6,0.8,2.3,1.4c0.6,0.6,0.8,1.4,0.8,2.2c0,0.7-0.2,1.4-0.6,2c-0.4,0.6-1,1.1-1.7,1.4C44.4,71.5,43.4,71.6,42.5,71.6"></path>
<path id="Tracé_1590" class="st0" d="M55.6,71.6c-0.9,0-1.7-0.2-2.5-0.5c-0.7-0.3-1.4-0.8-1.8-1.5c-0.5-0.7-0.7-1.6-0.7-2.4h1.9  c0,0.5,0.1,1,0.4,1.4c0.3,0.4,0.7,0.7,1.1,0.8c0.5,0.2,1,0.3,1.6,0.3c0.5,0,1-0.1,1.5-0.3c0.4-0.1,0.7-0.4,1-0.7  c0.2-0.3,0.4-0.6,0.4-1c0-0.5-0.1-0.9-0.5-1.2c-0.4-0.4-0.9-0.6-1.4-0.8l-2.5-0.9c-0.9-0.3-1.7-0.8-2.4-1.4  c-0.6-0.6-0.9-1.4-0.8-2.2c0-1,0.4-2,1.2-2.6c1-0.7,2.2-1.1,3.5-1c1.2-0.1,2.4,0.3,3.3,1c0.8,0.7,1.3,1.6,1.4,2.7h-2  c-0.1-0.5-0.4-1-0.8-1.4c-0.6-0.4-1.2-0.5-1.9-0.5c-0.7,0-1.3,0.1-1.9,0.5c-0.4,0.3-0.7,0.8-0.7,1.3c0,0.4,0.1,0.8,0.4,1  c0.4,0.3,0.8,0.6,1.3,0.7l2.8,1c0.9,0.3,1.6,0.8,2.3,1.4c0.6,0.6,0.8,1.4,0.8,2.2c0,0.7-0.2,1.4-0.6,2c-0.4,0.6-1,1.1-1.7,1.4  C57.5,71.5,56.6,71.6,55.6,71.6"></path>
<path id="Tracé_1591" class="st0" d="M69.3,71.6c-1.1,0-2.1-0.2-3-0.8c-0.9-0.5-1.6-1.4-2.1-2.3c-0.5-1.2-0.8-2.5-0.8-3.8  c0-1.3,0.2-2.7,0.8-3.9c0.4-1,1.2-1.8,2.1-2.3c1.9-1,4.2-1,6.1,0c0.9,0.5,1.7,1.3,2.1,2.3c0.5,1.2,0.8,2.5,0.8,3.9  c0,1.3-0.2,2.7-0.8,3.9c-0.4,1-1.2,1.8-2.1,2.3C71.4,71.4,70.3,71.6,69.3,71.6 M69.3,69.8c1.1,0,2.1-0.4,2.8-1.3  c0.8-1.1,1.1-2.5,1-3.8c0.1-1.3-0.3-2.7-1-3.8c-1.2-1.5-3.5-1.8-5.1-0.5c-0.2,0.2-0.4,0.3-0.5,0.5c-0.8,1.1-1.1,2.5-1,3.8  c-0.1,1.3,0.3,2.7,1,3.8C67.1,69.3,68.2,69.8,69.3,69.8"></path>
<path id="Tracé_1592" class="st0" d="M83.2,71.6c-1.1,0-2.1-0.3-3.1-0.9c-0.9-0.6-1.6-1.5-2-2.4c-0.5-1.2-0.7-2.4-0.7-3.7  c0-1.3,0.2-2.6,0.7-3.8c0.4-1,1.2-1.8,2.1-2.3c0.9-0.5,1.9-0.8,3-0.8c1.3-0.1,2.5,0.3,3.5,1.1c0.9,0.7,1.5,1.7,1.7,2.8l-2.1,0.4  c-0.2-0.7-0.6-1.4-1.2-1.9c-0.5-0.5-1.2-0.7-1.9-0.7c-0.6,0-1.3,0.2-1.8,0.6c-0.6,0.4-1,1-1.3,1.7c-0.4,0.9-0.5,1.8-0.5,2.8  c0,0.9,0.1,1.8,0.4,2.7c0.2,0.7,0.6,1.3,1.2,1.8c0.6,0.4,1.3,0.7,2,0.7c0.8,0,1.7-0.2,2.3-0.8c0.6-0.5,0.9-1.3,0.8-2h2.1  c0,0.9-0.2,1.7-0.7,2.5c-0.4,0.7-1.1,1.2-1.8,1.6C85.1,71.4,84.2,71.6,83.2,71.6"></path>
<rect id="Rectangle_2023" x="91.7" y="58" class="st0" width="2" height="13.4"></rect>
<path id="Tracé_1593" class="st0" d="M98,71.3V58h8.4v1.7H100v4.1h6v1.7h-6v4.1h6.4v1.7L98,71.3z M101.3,56.4l-1-0.8l3.7-3.8  l1.4,1.1L101.3,56.4z"></path>
<path id="Tracé_1594" class="st0" d="M114.7,71.6c-0.9,0-1.7-0.2-2.5-0.5c-0.7-0.3-1.4-0.8-1.8-1.5c-0.5-0.7-0.7-1.6-0.7-2.4h1.9  c0,0.5,0.1,1,0.4,1.4c0.3,0.4,0.7,0.7,1.1,0.8c0.5,0.2,1,0.3,1.6,0.3c0.5,0,1-0.1,1.5-0.3c0.4-0.1,0.7-0.4,1-0.7  c0.2-0.3,0.4-0.6,0.4-1c0-0.5-0.1-0.9-0.5-1.2c-0.4-0.4-0.9-0.6-1.4-0.8l-2.5-0.9c-0.9-0.3-1.7-0.8-2.4-1.4  c-0.6-0.6-0.9-1.4-0.8-2.2c0-1,0.4-2,1.2-2.6c1-0.7,2.2-1.1,3.5-1c1.2-0.1,2.4,0.3,3.3,1c0.8,0.7,1.3,1.6,1.3,2.7h-2  c-0.1-0.5-0.4-1-0.8-1.4c-0.6-0.4-1.2-0.5-1.9-0.5c-0.7,0-1.3,0.1-1.9,0.5c-0.4,0.3-0.7,0.8-0.7,1.3c0,0.4,0.1,0.8,0.4,1  c0.4,0.3,0.8,0.6,1.3,0.7l2.8,1c0.9,0.3,1.6,0.8,2.3,1.4c0.6,0.6,0.8,1.4,0.8,2.2c0,0.7-0.2,1.4-0.6,2c-0.4,0.6-1,1.1-1.7,1.4  C116.5,71.5,115.6,71.6,114.7,71.6"></path>
</svg>
